<svg width="20" height="20" viewBox="0 0 20 20" fill="none" xmlns="http://www.w3.org/2000/svg">
<g id="Icons/Apple">
<path id="Vector" d="M12.45 4.32501C12.765 3.9619 13.0053 3.54015 13.1568 3.08395C13.3084 2.62776 13.3684 2.14611 13.3333 1.66667C12.3661 1.74474 11.4683 2.19964 10.8333 2.93334C10.5292 3.28498 10.2988 3.69407 10.1557 4.13638C10.0125 4.57868 9.9596 5.04521 10 5.50834C10.4718 5.51227 10.9382 5.40758 11.363 5.20239C11.7878 4.99719 12.1598 4.69698 12.45 4.32501ZM14.55 10.525C14.5556 9.88645 14.7238 9.25986 15.0387 8.70434C15.3537 8.14883 15.8049 7.68272 16.35 7.35001C16.006 6.85437 15.5513 6.4457 15.0219 6.1564C14.4925 5.8671 13.9029 5.70513 13.3 5.68334C12 5.55001 10.8 6.44167 10.1083 6.44167C9.41667 6.44167 8.44167 5.70001 7.35833 5.71667C6.65011 5.74 5.96002 5.94649 5.35537 6.31599C4.75073 6.6855 4.25217 7.20541 3.90833 7.82501C2.44167 10.375 3.53333 14.1667 5 16.225C5.66667 17.2333 6.5 18.375 7.6 18.3333C8.7 18.2917 9.05833 17.65 10.3333 17.65C11.6083 17.65 12 18.3333 13.0833 18.3083C14.1667 18.2833 14.9333 17.275 15.6333 16.2667C16.1292 15.5346 16.5165 14.7347 16.7833 13.8917C16.1229 13.61 15.5594 13.1411 15.1625 12.5428C14.7656 11.9445 14.5527 11.243 14.55 10.525Z" fill="black"/>
</g>
</svg>
