<svg width="20" height="20" viewBox="0 0 20 20" fill="none" xmlns="http://www.w3.org/2000/svg">
<g id="Icons/Google">
<g id="Vector">
<path d="M18.7263 10.2C18.7263 9.46 18.665 8.92 18.5324 8.36001H9.90999V11.7H14.9712C14.8692 12.53 14.3182 13.78 13.0936 14.62L13.0765 14.7318L15.8027 16.8015L15.9916 16.82C17.7263 15.25 18.7263 12.94 18.7263 10.2Z" fill="#553B59"/>
<path d="M9.90999 19C12.3895 19 14.4712 18.2 15.9916 16.82L13.0936 14.62C12.3181 15.15 11.2773 15.52 9.90999 15.52C7.48144 15.52 5.42023 13.95 4.68546 11.78L4.57776 11.789L1.74296 13.939L1.70589 14.04C3.21607 16.9799 6.31812 19 9.90999 19Z" fill="#3BA935"/>
<path d="M4.68546 11.78C4.49159 11.22 4.37939 10.62 4.37939 10C4.37939 9.37996 4.49159 8.77998 4.67526 8.21999L4.67013 8.10073L1.7998 5.91619L1.70589 5.95996C1.08347 7.17998 0.726318 8.55 0.726318 10C0.726318 11.45 1.08347 12.82 1.70589 14.04L4.68546 11.78Z" fill="#FEA800"/>
<path d="M9.90999 4.47998C11.6345 4.47998 12.7977 5.20997 13.461 5.82001L16.0528 3.34C14.461 1.89 12.3895 1 9.90999 1C6.31812 1 3.21607 3.01998 1.70589 5.95996L4.67526 8.21999C5.42023 6.05 7.48144 4.47998 9.90999 4.47998Z" fill="#E3524F"/>
</g>
</g>
</svg>
