<svg width="20" height="20" viewBox="0 0 20 20" fill="none" xmlns="http://www.w3.org/2000/svg">
<g id="Icons/Login">
<path id="&#240;&#159;&#140;&#136; Secondary" fill-rule="evenodd" clip-rule="evenodd" d="M6.08015 5.37166C6.08015 3.32916 7.79665 1.66666 9.90635 1.66666H14.0999C16.2045 1.66666 17.9167 3.32499 17.9167 5.36332V14.6267C17.9167 16.67 16.201 18.3333 14.0913 18.3333H9.89774C7.79321 18.3333 6.08015 16.6742 6.08015 14.635V13.8517V5.37166Z" fill="#CDCDD0"/>
<path id="&#240;&#159;&#140;&#136; Primary" fill-rule="evenodd" clip-rule="evenodd" d="M13.3645 9.54484L10.8912 7.12067C10.6356 6.87067 10.2243 6.87067 9.96949 7.12234C9.71556 7.37401 9.7164 7.77984 9.97118 8.02984L11.3255 9.35734H2.73508C2.37535 9.35734 2.08334 9.64484 2.08334 9.99984C2.08334 10.354 2.37535 10.6407 2.73508 10.6407H11.3255L9.97118 11.969C9.7164 12.219 9.71556 12.6248 9.96949 12.8765C10.0973 13.0023 10.264 13.0657 10.4316 13.0657C10.5975 13.0657 10.7643 13.0023 10.8912 12.8782L13.3645 10.454C13.4872 10.3332 13.5566 10.1698 13.5566 9.99984C13.5566 9.82901 13.4872 9.66567 13.3645 9.54484" fill="#040415"/>
</g>
</svg>
