<svg width="24" height="24" viewBox="0 0 24 24" fill="none" xmlns="http://www.w3.org/2000/svg">
<g id="Icons/Remove cr-fr">
<path id="Shape" d="M12.1072 2C6.63355 2 2.19629 6.47715 2.19629 12C2.19629 17.5228 6.63355 22 12.1072 22C17.5808 22 22.0181 17.5228 22.0181 12C22.0181 6.47715 17.5808 2 12.1072 2Z" fill="#CDCDD0"/>
<path id="Shape_2" fill-rule="evenodd" clip-rule="evenodd" d="M8.43286 8.29289C8.81991 7.90237 9.44743 7.90237 9.83447 8.29289L12.1069 10.5858L14.3794 8.29289C14.7664 7.90237 15.394 7.90237 15.781 8.29289C16.1681 8.68342 16.1681 9.31658 15.781 9.70711L13.5085 12L15.781 14.2929C16.1681 14.6834 16.1681 15.3166 15.781 15.7071C15.394 16.0976 14.7664 16.0976 14.3794 15.7071L12.1069 13.4142L9.83447 15.7071C9.44743 16.0976 8.81991 16.0976 8.43286 15.7071C8.04582 15.3166 8.04582 14.6834 8.43286 14.2929L10.7053 12L8.43286 9.70711C8.04582 9.31658 8.04582 8.68342 8.43286 8.29289Z" fill="#040415"/>
</g>
</svg>
